<svg width="205" height="191" viewBox="0 0 205 191" fill="none" xmlns="http://www.w3.org/2000/svg">
<path d="M197.431 109.396C198.333 124.768 191.219 139.545 178.494 148.57L186.209 163.347C188.514 167.81 188.814 173.066 186.81 177.728C184.907 182.389 180.999 186.058 176.189 187.645L168.274 190.124C164.978 191.224 161.419 191.289 158.084 190.313C154.749 189.337 151.799 187.366 149.637 184.67L128.395 159.876C119.477 158.389 111.06 154.62 103.946 148.967C98.9365 150.455 93.9266 151.248 88.9167 151.248C80.0992 151.248 71.2818 148.57 63.8671 143.413C58.5566 145 53.1459 145.694 47.635 145.595C39.7194 145.694 31.9039 144.107 24.5894 141.132C17.5489 138.023 11.533 133.018 7.22791 126.687C2.92282 120.357 0.501901 112.957 0.241283 105.33C-0.560302 98.1896 0.642076 90.9499 3.74822 84.4043C0.842473 76.9662 0.541878 68.8339 3.04683 61.2966C6.75417 51.8751 13.768 44.0403 22.4853 39.0815C28.2968 22.321 44.6291 11.1143 62.5646 12.3044C78.5963 -2.57183 103.145 -4.15862 120.98 8.63491C125.188 7.54399 129.597 6.94894 134.006 6.94894C147.633 6.65141 160.558 12.6019 169.075 23.2136C189.516 28.4698 204.145 46.5196 204.946 67.5446C205.447 78.553 202.441 89.3631 196.329 98.5863C197.031 102.157 197.431 105.727 197.431 109.396ZM147.332 95.4127C153.044 96.1069 157.552 100.371 157.552 106.024C157.552 108.655 156.497 111.177 154.618 113.037C152.739 114.897 150.19 115.942 147.533 115.942H141.22C138.014 124.868 132.403 132.702 124.988 138.653C127.493 139.545 130.098 140.041 132.703 140.736C184.105 140.041 178.093 109 178.093 108.504C177.827 101.691 174.838 95.2626 169.783 90.6315C164.729 86.0005 158.022 83.5464 151.14 83.8093C148.482 83.8093 145.934 82.7644 144.055 80.9045C142.176 79.0446 141.12 76.5221 141.12 73.8918C141.12 71.2615 142.176 68.739 144.055 66.8791C145.934 65.0192 148.482 63.9744 151.14 63.9744C163.464 64.2719 175.288 68.8339 184.506 76.8671C185.007 73.991 185.307 71.0157 185.307 68.0405C184.706 55.7429 179.095 45.032 156.55 42.9493C144.026 13.5936 112.463 29.8583 112.463 38.9823C112.163 41.2634 114.567 46.1229 114.968 46.4204C117.626 46.4204 120.174 47.4653 122.053 49.3252C123.932 51.1851 124.988 53.7076 124.988 56.3379C124.988 61.7925 120.479 66.2554 114.968 66.2554C109.658 66.057 104.648 64.0735 100.64 60.7016C95.8304 63.776 90.3195 65.6603 84.6082 66.2554C78.8969 66.7512 74.1875 62.7843 73.887 57.3297C73.7024 56.0342 73.7872 54.715 74.1364 53.4531C74.4855 52.1913 75.0916 51.0134 75.9173 49.9918C76.743 48.9702 77.771 48.1264 78.9382 47.5122C80.1053 46.8981 81.3869 46.5266 82.7044 46.4204C84.3076 46.2221 92.123 45.032 92.123 38.784C92.123 32.2385 94.628 25.9905 98.9365 21.0317C89.7183 18.5524 79.7987 21.8251 69.7788 33.8253C51.3424 30.9492 43.8275 33.4286 38.3166 52.7676C28.7978 57.4288 23.7879 60.7016 21.5835 70.6191C32.4049 68.4372 43.5269 69.3298 53.8473 73.0984C58.8572 74.9827 61.6628 80.5365 59.759 85.8919C57.8552 91.049 52.0438 93.6276 46.8334 91.7433C39.519 88.5697 31.3027 88.3713 23.7879 91.1482C20.5815 93.8259 20.5815 99.3797 20.5815 103.743C20.5815 111.082 24.2888 117.925 30.6013 121.892C35.9118 124.57 41.8235 125.958 47.7352 125.859C46.2323 123.281 44.9297 120.603 43.8275 117.826C43.0387 115.278 43.279 112.527 44.4978 110.15C45.7166 107.774 47.819 105.958 50.3627 105.085C52.9064 104.211 55.6933 104.348 58.1371 105.467C60.581 106.585 62.4913 108.598 63.4663 111.082C67.4743 122.388 77.6945 130.124 89.7183 131.413C103.445 130.719 115.67 122.686 121.681 110.289C123.986 96.6028 135.108 95.4127 147.332 95.4127ZM167.372 169.496L161.16 156.603L154.046 158.19L164.065 170.587L167.372 169.496ZM120.78 84.1068C120.867 81.5733 119.97 79.1029 118.275 77.2032C116.579 75.3034 114.213 74.1185 111.662 73.8918C104.548 73.4951 97.6339 75.8753 92.3234 80.5365C86.6121 86.2886 83.6062 94.2226 83.9068 102.256C83.9068 104.886 84.9624 107.409 86.8415 109.268C88.7206 111.128 91.2692 112.173 93.9266 112.173C99.6379 112.173 103.946 107.71 103.946 102.256C103.946 99.578 104.648 96.9003 106.251 94.7185C107.453 93.7267 108.956 93.2309 110.559 93.2309C116.07 93.5284 120.78 89.4622 120.78 84.1068Z" fill="#46A3A8"/>
</svg>
