<svg width="200" height="222" viewBox="0 0 200 222" fill="none" xmlns="http://www.w3.org/2000/svg">
<path d="M70.184 130.86H152.72V146.187H70.184V130.86ZM70.184 103.665H138.285V118.992H70.184V103.665ZM70.184 76.442H152.72V91.76H70.184V76.442ZM192.432 161.496C191.929 160.593 191.666 159.578 191.666 158.545C191.666 157.512 191.929 156.497 192.432 155.594C193.636 153.393 194.765 151.191 195.821 148.86C195.995 148.477 196.07 148.056 196.038 147.636C196.006 147.216 195.869 146.811 195.64 146.458C195.41 146.105 195.095 145.815 194.724 145.616C194.352 145.417 193.937 145.314 193.515 145.317H173.46C172.446 145.313 171.448 145.562 170.555 146.042C169.662 146.522 168.904 147.217 168.349 148.065C165.724 152.089 162.693 155.833 159.303 159.239C152.98 165.583 145.461 170.611 137.181 174.034C128.901 177.458 120.024 179.207 111.063 179.182C102.104 179.204 93.2299 177.453 84.953 174.028C76.6761 170.603 69.1607 165.574 62.8416 159.229C56.4886 152.915 51.4523 145.404 48.0241 137.132C44.5959 128.859 42.844 119.99 42.8697 111.037C42.8697 92.8237 49.9621 75.6927 62.8323 62.8353C69.1551 56.4914 76.6738 51.4626 84.9539 48.0395C93.234 44.6164 102.111 42.8669 111.072 42.8923C129.285 42.8923 146.433 49.9778 159.312 62.8445C162.72 66.2578 165.757 70.0872 168.349 74.0092C169.46 75.7297 171.377 76.7565 173.451 76.7565H193.515C193.934 76.7537 194.346 76.6468 194.713 76.4456C195.081 76.2444 195.392 75.9552 195.62 75.6038C195.848 75.2525 195.984 74.8502 196.018 74.433C196.051 74.0158 195.98 73.5968 195.812 73.2137C194.778 70.9237 193.651 68.6771 192.432 66.4797C191.937 65.5749 191.677 64.5602 191.677 63.529C191.677 62.4978 191.937 61.4831 192.432 60.5782L199.237 48.2573C199.878 47.0968 200.124 45.7604 199.941 44.448C199.757 43.1357 199.153 41.9181 198.219 40.9775L181.219 23.9945C180.281 23.0547 179.061 22.4469 177.746 22.2633C176.431 22.0796 175.092 22.3302 173.932 22.977L161.571 29.8035C160.665 30.3 159.647 30.5573 158.613 30.5508C157.579 30.5443 156.564 30.2744 155.664 29.7665C149.778 26.5455 143.552 23.9891 137.1 22.1445C136.107 21.8637 135.202 21.3351 134.469 20.6086C133.737 19.882 133.202 18.9813 132.914 17.9913L128.989 4.44001C128.62 3.16461 127.849 2.04269 126.789 1.24227C125.729 0.441851 124.438 0.00600656 123.109 1.17439e-05H99.0539C97.7242 -0.00259899 96.4302 0.430141 95.37 1.23201C94.3099 2.03387 93.5419 3.16069 93.1837 4.44001L89.2856 17.945C88.9965 18.9334 88.4608 19.8322 87.7288 20.557C86.9967 21.2819 86.0923 21.809 85.1005 22.089C78.6469 23.9668 72.4155 26.529 66.5359 29.748C64.6841 30.7655 62.4805 30.7655 60.6286 29.7758L48.24 22.977C47.0783 22.3374 45.7406 22.0909 44.427 22.2743C43.1134 22.4577 41.8946 23.0612 40.953 23.9945L23.9626 40.996C23.0255 41.9341 22.4193 43.1519 22.2356 44.4653C22.0518 45.7787 22.3005 47.1163 22.9441 48.2758L29.768 60.6245C30.7865 62.4745 30.7588 64.676 29.7403 66.526C26.5131 72.4057 23.951 78.6261 22.1015 85.0722C21.8212 86.0631 21.2936 86.9667 20.568 87.698C19.8424 88.4293 18.9428 88.9645 17.9534 89.2532L4.43511 93.1382C3.16018 93.5077 2.03921 94.2795 1.23978 95.3383C0.440351 96.397 0.00541635 97.6858 0 99.012V123.053C0 125.763 1.78701 128.196 4.44437 128.926L17.9534 132.811C18.9438 133.101 19.8442 133.638 20.5699 134.371C21.2955 135.104 21.8226 136.009 22.1015 137.002C23.9903 143.449 26.5459 149.674 29.768 155.539C30.7865 157.389 30.7865 159.59 29.8051 161.459L22.9718 173.798C22.3338 174.958 22.0883 176.292 22.2718 177.603C22.4554 178.913 23.0582 180.129 23.9903 181.069L40.9808 198.061C41.9193 199.001 43.1387 199.609 44.4537 199.792C45.7688 199.976 47.1079 199.725 48.2677 199.078L60.6286 192.252C62.4805 191.234 64.6841 191.262 66.5359 192.28C72.4215 195.504 78.648 198.063 85.1005 199.911C87.1097 200.484 88.7115 202.038 89.2856 204.055L93.1744 217.56C93.9429 220.178 96.341 222 99.0539 222H123.109C124.44 222.005 125.737 221.573 126.799 220.771C127.861 219.969 128.63 218.841 128.989 217.56L132.887 204.055C133.176 203.067 133.711 202.168 134.444 201.443C135.176 200.718 136.08 200.191 137.072 199.911C143.517 198.039 149.739 195.471 155.627 192.252C156.532 191.754 157.547 191.49 158.581 191.483C159.614 191.477 160.632 191.728 161.544 192.215L173.905 199.051C176.303 200.346 179.275 199.939 181.182 198.033L198.182 181.041C199.119 180.103 199.725 178.885 199.909 177.572C200.093 176.258 199.844 174.921 199.2 173.761L192.432 161.496Z" fill="#3771A7"/>
</svg>
