<svg width="205" height="205" viewBox="0 0 205 205" fill="none" xmlns="http://www.w3.org/2000/svg">
<path d="M102.5 205C73.838 205 49.591 200.589 29.7592 191.766C9.92731 182.944 0.00759259 172.17 0 159.444V45.5556C0 33.0278 10.0146 22.3032 30.0439 13.3819C50.0731 4.46065 74.2252 0 102.5 0C130.782 0 154.938 4.46065 174.968 13.3819C194.997 22.3032 205.008 33.0278 205 45.5556V159.444C205 172.162 195.08 182.936 175.241 191.766C155.401 200.596 131.154 205.008 102.5 205ZM102.5 68.6181C119.394 68.6181 136.382 66.196 153.465 61.3519C170.549 56.5079 180.134 51.3373 182.222 45.8403C180.134 40.3357 170.598 35.1157 153.613 30.1806C136.629 25.2454 119.591 22.7778 102.5 22.7778C85.2269 22.7778 68.2878 25.1998 51.6828 30.0439C35.0778 34.888 25.4428 40.1534 22.7778 45.8403C25.4352 51.5347 35.0702 56.7546 51.6828 61.5C68.2954 66.2454 85.2344 68.6181 102.5 68.6181ZM102.5 125.278C110.472 125.278 118.16 124.898 125.563 124.139C132.965 123.38 140.038 122.286 146.78 120.859C153.515 119.439 159.873 117.685 165.856 115.597C171.839 113.509 177.295 111.137 182.222 108.479V74.3125C177.287 76.9699 171.832 79.3426 165.856 81.4306C159.881 83.5185 153.522 85.2762 146.78 86.7036C140.038 88.1234 132.965 89.213 125.563 89.9722C118.16 90.7315 110.472 91.1111 102.5 91.1111C94.5278 91.1111 86.7454 90.7315 79.1528 89.9722C71.5602 89.213 64.3928 88.1196 57.6506 86.6922C50.9159 85.2724 44.6065 83.5185 38.7222 81.4306C32.838 79.3426 27.5231 76.9699 22.7778 74.3125V108.479C27.5231 111.137 32.838 113.509 38.7222 115.597C44.6065 117.685 50.9197 119.443 57.6619 120.87C64.3966 122.29 71.5602 123.38 79.1528 124.139C86.7454 124.898 94.5278 125.278 102.5 125.278ZM102.5 182.222C111.231 182.222 120.107 181.558 129.127 180.229C138.147 178.9 146.45 177.147 154.035 174.968C161.627 172.781 167.986 170.313 173.111 167.565C178.236 164.816 181.273 162.015 182.222 159.16V131.257C177.287 133.914 171.832 136.287 165.856 138.375C159.881 140.463 153.522 142.221 146.78 143.648C140.038 145.068 132.965 146.157 125.563 146.917C118.16 147.676 110.472 148.056 102.5 148.056C94.5278 148.056 86.7454 147.676 79.1528 146.917C71.5602 146.157 64.3928 145.064 57.6506 143.637C50.9159 142.217 44.6065 140.463 38.7222 138.375C32.838 136.287 27.5231 133.914 22.7778 131.257V159.444C23.7269 162.292 26.7183 165.044 31.7522 167.701C36.7861 170.359 43.0956 172.781 50.6806 174.968C58.2731 177.147 66.625 178.9 75.7361 180.229C84.8472 181.558 93.7685 182.222 102.5 182.222Z" fill="#7E44DD"/>
</svg>
