<svg width="230" height="168" viewBox="0 0 230 168" fill="none" xmlns="http://www.w3.org/2000/svg">
<path d="M223.83 78.9204C213.666 33.1614 198.37 8.73814 175.68 2.06684C170.911 0.673637 165.963 -0.0223912 160.993 0.000549056C154.423 0.000549056 148.701 1.59441 142.649 3.28371C135.356 5.32137 127.071 7.6358 114.99 7.6358C102.91 7.6358 94.6196 5.32614 87.3119 3.28848C81.2549 1.59441 75.5381 0.000549056 68.9875 0.000549056C63.8478 -0.0171986 58.7305 0.676613 53.7827 2.06207C31.2126 8.70474 15.9263 33.1185 5.61405 78.8918C-5.47451 128.149 -0.0164866 159.248 20.9195 166.463C23.7893 167.471 26.8088 167.99 29.8517 168C44.194 168 55.6946 156.103 63.5534 146.364C72.4329 135.34 82.8266 129.747 114.99 129.747C143.718 129.747 155.607 133.627 165.876 146.364C172.331 154.371 178.431 159.973 184.516 163.5C192.61 168.186 200.699 169.226 208.553 166.54C220.926 162.336 228.018 151.222 229.637 133.498C230.869 119.907 228.971 102.055 223.83 78.9204ZM91.9888 76.3531H76.6546V91.6236C76.6546 93.6486 75.8468 95.5907 74.4089 97.0225C72.9711 98.4544 71.0209 99.2589 68.9875 99.2589C66.954 99.2589 65.0039 98.4544 63.566 97.0225C62.1282 95.5907 61.3204 93.6486 61.3204 91.6236V76.3531H45.9862C43.9527 76.3531 42.0026 75.5487 40.5647 74.1168C39.1268 72.6849 38.3191 70.7428 38.3191 68.7178C38.3191 66.6928 39.1268 64.7508 40.5647 63.3189C42.0026 61.887 43.9527 61.0826 45.9862 61.0826H61.3204V45.8121C61.3204 43.7871 62.1282 41.845 63.566 40.4131C65.0039 38.9812 66.954 38.1768 68.9875 38.1768C71.0209 38.1768 72.9711 38.9812 74.4089 40.4131C75.8468 41.845 76.6546 43.7871 76.6546 45.8121V61.0826H91.9888C94.0222 61.0826 95.9724 61.887 97.4103 63.3189C98.8481 64.7508 99.6559 66.6928 99.6559 68.7178C99.6559 70.7428 98.8481 72.6849 97.4103 74.1168C95.9724 75.5487 94.0222 76.3531 91.9888 76.3531ZM132.241 78.2619C130.346 78.2619 128.493 77.7022 126.917 76.6534C125.341 75.6047 124.112 74.1141 123.387 72.3702C122.661 70.6262 122.472 68.7072 122.841 66.8559C123.211 65.0045 124.124 63.3039 125.464 61.9692C126.805 60.6344 128.512 59.7254 130.371 59.3572C132.23 58.9889 134.157 59.1779 135.909 59.9003C137.66 60.6226 139.157 61.8459 140.21 63.4154C141.263 64.9849 141.825 66.8302 141.825 68.7178C141.825 71.2491 140.815 73.6767 139.018 75.4665C137.221 77.2564 134.783 78.2619 132.241 78.2619ZM153.326 99.2589C151.429 99.2588 149.575 98.6985 147.999 97.6487C146.422 96.5989 145.194 95.107 144.469 93.3616C143.744 91.6163 143.556 89.6961 143.928 87.844C144.299 85.992 145.215 84.2915 146.557 82.9577C147.9 81.6239 149.61 80.7168 151.471 80.3512C153.331 79.9856 155.259 80.1781 157.01 80.9041C158.761 81.6301 160.256 82.8571 161.306 84.4298C162.356 86.0024 162.914 87.85 162.91 89.7386C162.903 92.2657 161.891 94.6872 160.094 96.4719C158.297 98.2566 155.863 99.2589 153.326 99.2589ZM153.326 57.265C151.43 57.265 149.577 56.7052 148.001 55.6565C146.425 54.6078 145.197 53.1172 144.471 51.3732C143.746 49.6293 143.556 47.7103 143.926 45.8589C144.296 44.0076 145.209 42.307 146.549 40.9722C147.889 39.6375 149.597 38.7285 151.456 38.3602C153.315 37.9919 155.242 38.181 156.993 38.9033C158.744 39.6257 160.241 40.849 161.294 42.4185C162.347 43.988 162.91 45.8333 162.91 47.7209C162.91 50.2521 161.9 52.6797 160.103 54.4696C158.305 56.2594 155.867 57.265 153.326 57.265ZM174.41 78.2619C172.515 78.2619 170.662 77.7022 169.086 76.6534C167.51 75.6047 166.281 74.1141 165.556 72.3702C164.83 70.6262 164.641 68.7072 165.01 66.8559C165.38 65.0045 166.293 63.3039 167.633 61.9692C168.974 60.6344 170.681 59.7254 172.54 59.3572C174.4 58.9889 176.327 59.1779 178.078 59.9003C179.829 60.6226 181.326 61.8459 182.379 63.4154C183.432 64.9849 183.994 66.8302 183.994 68.7178C183.994 71.2491 182.984 73.6767 181.187 75.4665C179.39 77.2564 176.952 78.2619 174.41 78.2619Z" fill="#2F854F"/>
</svg>
