<svg width="209" height="209" viewBox="0 0 209 209" fill="none" xmlns="http://www.w3.org/2000/svg">
<path d="M125.618 71.7819H82.5492C79.6935 71.7819 76.9548 72.9163 74.9356 74.9356C72.9163 76.9548 71.7819 79.6935 71.7819 82.5492V125.618C71.7819 128.474 72.9163 131.213 74.9356 133.232C76.9548 135.251 79.6935 136.386 82.5492 136.386H125.618C128.474 136.386 131.213 135.251 133.232 133.232C135.251 131.213 136.386 128.474 136.386 125.618V82.5492C136.386 79.6935 135.251 76.9548 133.232 74.9356C131.213 72.9163 128.474 71.7819 125.618 71.7819ZM114.851 114.851H93.3165V93.3165H114.851V114.851ZM197.4 114.851H186.633V93.3165H197.4C200.256 93.3165 202.995 92.182 205.014 90.1628C207.033 88.1435 208.167 85.4048 208.167 82.5492C208.167 79.6935 207.033 76.9548 205.014 74.9356C202.995 72.9163 200.256 71.7819 197.4 71.7819H186.633V39.48C186.633 34.7206 184.742 30.1561 181.377 26.7907C178.011 23.4252 173.447 21.5346 168.687 21.5346H136.386V10.7673C136.386 7.91162 135.251 5.17292 133.232 3.15366C131.213 1.13441 128.474 0 125.618 0C122.763 0 120.024 1.13441 118.005 3.15366C115.985 5.17292 114.851 7.91162 114.851 10.7673V21.5346H93.3165V10.7673C93.3165 7.91162 92.182 5.17292 90.1628 3.15366C88.1435 1.13441 85.4048 0 82.5492 0C79.6935 0 76.9548 1.13441 74.9356 3.15366C72.9163 5.17292 71.7819 7.91162 71.7819 10.7673V21.5346L39.48 21.5346C34.7206 21.5346 30.1561 23.4252 26.7907 26.7907C23.4252 30.1561 21.5346 34.7206 21.5346 39.48L21.5346 71.7819H10.7673C7.91162 71.7819 5.17292 72.9163 3.15366 74.9356C1.13441 76.9548 0 79.6935 0 82.5492C0 85.4048 1.13441 88.1435 3.15366 90.1628C5.17292 92.182 7.91162 93.3165 10.7673 93.3165H21.5346V114.851H10.7673C7.91162 114.851 5.17292 115.985 3.15366 118.005C1.13441 120.024 0 122.763 0 125.618C0 128.474 1.13441 131.213 3.15366 133.232C5.17292 135.251 7.91162 136.386 10.7673 136.386H21.5346V168.687C21.5346 173.447 23.4252 178.011 26.7907 181.377C30.1561 184.742 34.7206 186.633 39.48 186.633H71.7819V197.4C71.7819 200.256 72.9163 202.995 74.9356 205.014C76.9548 207.033 79.6935 208.167 82.5492 208.167C85.4048 208.167 88.1435 207.033 90.1628 205.014C92.182 202.995 93.3165 200.256 93.3165 197.4V186.633H114.851V197.4C114.851 200.256 115.985 202.995 118.005 205.014C120.024 207.033 122.763 208.167 125.618 208.167C128.474 208.167 131.213 207.033 133.232 205.014C135.251 202.995 136.386 200.256 136.386 197.4V186.633H168.687C173.447 186.633 178.011 184.742 181.377 181.377C184.742 178.011 186.633 173.447 186.633 168.687V136.386H197.4C200.256 136.386 202.995 135.251 205.014 133.232C207.033 131.213 208.167 128.474 208.167 125.618C208.167 122.763 207.033 120.024 205.014 118.005C202.995 115.985 200.256 114.851 197.4 114.851ZM165.098 165.098H43.0691L43.0691 43.0691L165.098 43.0691V165.098Z" fill="#9025C2"/>
</svg>
