<svg width="209" height="209" viewBox="0 0 209 209" fill="none" xmlns="http://www.w3.org/2000/svg">
<path d="M104.5 209C76.7849 209 50.2049 197.99 30.6073 178.393C11.0098 158.795 0 132.215 0 104.5C0 76.7849 11.0098 50.2049 30.6073 30.6073C50.2049 11.0098 76.7849 0 104.5 0C132.215 0 158.795 11.0098 178.393 30.6073C197.99 50.2049 209 76.7849 209 104.5C209 132.215 197.99 158.795 178.393 178.393C158.795 197.99 132.215 209 104.5 209ZM185.487 125.4C189.022 111.691 189.022 97.3091 185.487 83.6H145.569C146.537 97.5165 146.537 111.483 145.569 125.4H185.487ZM176.918 146.3H143.269C141.519 158.896 138.184 171.22 133.342 182.979C151.7 176.208 167.114 163.233 176.918 146.3ZM84.436 125.4H124.564C125.698 111.49 125.698 97.5102 124.564 83.6H84.436C83.3018 97.5102 83.3018 111.49 84.436 125.4ZM87.0485 146.3C91.333 171.38 98.857 188.1 104.5 188.1C110.143 188.1 117.667 171.38 121.951 146.3H87.0485ZM23.5125 125.4H63.4315C62.4631 111.483 62.4631 97.5165 63.4315 83.6H23.5125C19.9775 97.3091 19.9775 111.691 23.5125 125.4ZM32.0815 146.3C41.8863 163.233 57.3003 176.208 75.658 182.979C71.269 172.947 67.925 160.407 65.7305 146.3H32.0815ZM176.918 62.7C167.114 45.7669 151.7 32.7925 133.342 26.0205C137.731 36.0525 141.075 48.5925 143.269 62.7H176.918ZM87.0485 62.7H121.951C117.667 37.62 110.143 20.9 104.5 20.9C98.857 20.9 91.333 37.62 87.0485 62.7ZM32.0815 62.7H65.7305C67.8205 48.5925 71.269 36.0525 75.658 26.0205C57.3003 32.7925 41.8863 45.7669 32.0815 62.7Z" fill="#DC5118"/>
</svg>
