<svg width="218" height="218" viewBox="0 0 218 218" fill="none" xmlns="http://www.w3.org/2000/svg">
<path d="M108.634 56.6622C98.3495 56.6622 88.2958 59.712 79.7445 65.4258C71.1931 71.1397 64.5281 79.2609 60.5924 88.7627C56.6566 98.2645 55.6269 108.72 57.6333 118.807C59.6397 128.894 64.5922 138.159 71.8646 145.432C79.1369 152.704 88.4024 157.657 98.4894 159.663C108.576 161.67 119.032 160.64 128.534 156.704C138.035 152.768 146.157 146.103 151.871 137.552C157.584 129.001 160.634 118.947 160.634 108.662C160.618 94.8759 155.135 81.6587 145.386 71.9102C135.638 62.1618 122.421 56.6781 108.634 56.6622ZM108.634 136.662C103.096 136.662 97.6827 135.02 93.0782 131.943C88.4736 128.867 84.8847 124.494 82.7655 119.377C80.6462 114.261 80.0917 108.631 81.1721 103.2C82.2525 97.7682 84.9193 92.7791 88.8351 88.8633C92.751 84.9474 97.7401 82.2806 103.172 81.2002C108.603 80.1199 114.233 80.6744 119.349 82.7936C124.466 84.9129 128.839 88.5017 131.915 93.1063C134.992 97.7108 136.634 103.124 136.634 108.662C136.634 116.088 133.684 123.21 128.433 128.461C123.182 133.712 116.06 136.662 108.634 136.662ZM200.634 109.452V107.872L214.634 90.3622C215.809 88.8951 216.623 87.1724 217.011 85.3329C217.398 83.4934 217.348 81.5887 216.864 79.7722C214.338 70.2433 210.562 61.0905 205.634 52.5522C204.685 50.924 203.365 49.5423 201.783 48.519C200.2 47.4957 198.398 46.8596 196.524 46.6622L174.244 44.1622L173.134 43.0522L170.634 20.7622C170.435 18.8896 169.798 17.0902 168.775 15.5093C167.752 13.9284 166.371 12.6105 164.744 11.6622C156.205 6.71913 147.049 2.92947 137.514 0.39224C135.696 -0.0843751 133.791 -0.127267 131.954 0.267021C130.116 0.661308 128.397 1.48175 126.934 2.66224L109.424 16.6622H107.844L90.3341 2.66224C88.867 1.48705 87.1442 0.672983 85.3048 0.285638C83.4653 -0.101706 81.5606 -0.0514889 79.7441 0.432241C70.2127 2.97435 61.0598 6.76731 52.5241 11.7122C50.9023 12.6566 49.5245 13.9682 48.5016 15.5417C47.4786 17.1152 46.839 18.9067 46.6341 20.7722L44.1341 43.0522L43.0241 44.1622L20.7341 46.6622C18.8615 46.8611 17.062 47.4979 15.4812 48.5212C13.9003 49.5444 12.5824 50.9253 11.6341 52.5522C6.7049 61.0932 2.92872 70.2495 0.404123 79.7822C-0.0779558 81.5973 -0.127325 83.5001 0.259988 85.3376C0.647301 87.1752 1.46048 88.8962 2.63412 90.3622L16.6341 107.872V109.452L2.63412 126.962C1.45894 128.429 0.644864 130.152 0.25752 131.992C-0.129824 133.831 -0.0796072 135.736 0.404123 137.552C2.94939 147.084 6.74572 156.237 11.6941 164.772C12.6375 166.393 13.9476 167.77 15.5192 168.793C17.0908 169.816 18.8803 170.456 20.7441 170.662L43.0241 173.142L44.1341 174.252L46.6341 196.562C46.833 198.435 47.4698 200.234 48.4931 201.815C49.5163 203.396 50.8972 204.714 52.5241 205.662C61.0631 210.605 70.2194 214.395 79.7541 216.932C81.5722 217.409 83.4768 217.452 85.3145 217.057C87.1522 216.663 88.8716 215.843 90.3341 214.662L107.844 200.662H109.424L126.934 214.662C128.401 215.837 130.124 216.652 131.963 217.039C133.803 217.426 135.708 217.376 137.524 216.892C147.053 214.366 156.206 210.59 164.744 205.662C166.37 204.72 167.751 203.41 168.778 201.836C169.804 200.262 170.447 198.47 170.654 196.602L173.134 174.322L174.244 173.212L196.534 170.662C198.402 170.455 200.194 169.813 201.768 168.786C203.341 167.76 204.652 166.378 205.594 164.752C210.537 156.213 214.327 147.057 216.864 137.522C217.343 135.71 217.391 133.811 217.003 131.977C216.616 130.144 215.805 128.426 214.634 126.962L200.634 109.452ZM176.514 104.562C176.674 107.293 176.674 110.031 176.514 112.762C176.335 115.731 177.266 118.66 179.124 120.982L191.964 137.032C190.752 140.62 189.306 144.124 187.634 147.522L167.204 149.792C164.246 150.13 161.52 151.556 159.554 153.792C157.738 155.839 155.801 157.776 153.754 159.592C151.518 161.558 150.092 164.284 149.754 167.242L147.494 187.662C144.097 189.341 140.592 190.794 137.004 192.012L120.954 179.162C118.824 177.463 116.179 176.539 113.454 176.542H112.734C110.003 176.702 107.265 176.702 104.534 176.542C101.567 176.366 98.6402 177.292 96.3141 179.142L80.2641 191.992C76.6764 190.78 73.1722 189.334 69.7741 187.662L67.5041 167.232C67.1659 164.274 65.7403 161.548 63.5041 159.582C61.4575 157.766 59.5207 155.829 57.7041 153.782C55.7386 151.546 53.012 150.12 50.0541 149.782L29.6341 147.522C27.9558 144.125 26.5027 140.62 25.2841 137.032L38.1241 120.982C39.9827 118.66 40.9128 115.731 40.7341 112.762C40.5741 110.031 40.5741 107.293 40.7341 104.562C40.9128 101.593 39.9827 98.6641 38.1241 96.3422L25.3041 80.2922C26.5162 76.7045 27.9626 73.2003 29.6341 69.8022L50.0641 67.5322C53.022 67.194 55.7486 65.7684 57.7141 63.5322C59.5307 61.4856 61.4675 59.5488 63.5141 57.7322C65.7503 55.7667 67.1759 53.0401 67.5141 50.0822L69.7741 29.6622C73.1717 27.9839 76.6759 26.5308 80.2641 25.3122L96.3141 38.1622C98.6402 40.0121 101.567 40.938 104.534 40.7622C107.265 40.6022 110.003 40.6022 112.734 40.7622C115.702 40.9438 118.631 40.0172 120.954 38.1622L137.004 25.3122C140.592 26.5308 144.097 27.9839 147.494 29.6622L149.764 50.0922C150.102 53.0501 151.528 55.7767 153.764 57.7422C155.811 59.5588 157.748 61.4956 159.564 63.5422C161.53 65.7784 164.256 67.204 167.214 67.5422L187.634 69.8022C189.312 73.1998 190.766 76.704 191.984 80.2922L179.144 96.3422C177.278 98.6613 176.341 101.591 176.514 104.562Z" fill="#919A2C"/>
</svg>
